<?xml version="1.0" standalone="no"?>
<!DOCTYPE svg PUBLIC "-//W3C//DTD SVG 20010904//EN"
 "http://www.w3.org/TR/2001/REC-SVG-20010904/DTD/svg10.dtd">
<svg version="1.0" xmlns="http://www.w3.org/2000/svg"
 width="1280.000000pt" height="1280.000000pt" viewBox="0 0 1280.000000 1280.000000"
 preserveAspectRatio="xMidYMid meet">

<g transform="translate(0.000000,1280.000000) scale(0.100000,-0.100000)"
fill="#000000" stroke="none">
<path d="M1352 9064 c-113 -25 -258 -90 -339 -151 -107 -81 -229 -228 -267
-323 -10 -25 -22 -50 -26 -55 -5 -6 -20 -57 -34 -114 l-26 -104 0 -1711 0
-1711 26 -105 c14 -58 30 -110 35 -116 5 -6 15 -28 23 -50 12 -36 32 -70 84
-144 62 -89 198 -207 299 -259 123 -62 133 -65 285 -91 109 -19 171 -20 1568
-20 1210 0 1481 3 1610 15 173 17 226 27 287 55 24 11 48 20 55 20 7 0 24 9
38 20 14 11 30 20 37 20 20 0 188 136 230 186 77 93 110 141 122 177 7 20 15
37 20 39 16 7 62 163 71 241 6 46 10 533 10 1116 l0 1034 -234 -237 c-172
-175 -235 -246 -240 -268 -3 -17 -6 -374 -6 -794 0 -420 -4 -773 -9 -786 -4
-13 -16 -49 -26 -80 -10 -32 -22 -58 -26 -58 -4 0 -10 -8 -14 -19 -15 -48
-107 -120 -202 -158 l-68 -28 -1525 0 c-839 0 -1555 3 -1591 7 -37 4 -75 11
-85 17 -11 5 -37 18 -59 28 -36 16 -108 79 -145 128 -9 11 -28 54 -43 95 l-27
75 2 1666 c2 1211 6 1670 14 1680 6 8 17 32 24 53 16 50 143 180 185 190 17 4
46 15 65 24 32 16 169 17 1771 17 1296 0 1742 -3 1760 -12 13 -6 45 -21 70
-32 61 -28 128 -97 164 -168 24 -48 29 -69 29 -133 0 -122 -9 -134 -344 -474
-162 -164 -301 -304 -308 -310 -7 -6 -18 -16 -25 -23 -7 -7 -104 -106 -216
-220 -111 -114 -372 -378 -579 -585 -368 -370 -377 -378 -416 -378 -38 0 -47
8 -310 270 -705 702 -687 687 -801 678 -48 -4 -73 -12 -106 -36 -65 -45 -85
-70 -108 -141 -18 -55 -19 -70 -9 -110 28 -112 -41 -37 938 -1006 160 -159
259 -248 283 -259 68 -28 129 -30 204 -7 l69 20 1045 1049 c1146 1150 1100
1099 1155 1279 36 119 38 304 4 428 -12 44 -24 90 -27 103 -3 12 -9 22 -13 22
-5 0 -16 22 -25 50 -9 27 -21 52 -26 56 -5 3 -18 22 -29 43 -19 38 -169 201
-184 201 -5 0 -23 12 -41 28 -58 49 -191 114 -275 133 -172 39 -138 39 -1925
38 l-1720 -1 -103 -24z m3171 -1 c-68 -2 -178 -2 -245 0 -68 1 -13 3 122 3
135 0 190 -2 123 -3z m260 0 c-13 -2 -33 -2 -45 0 -13 2 -3 4 22 4 25 0 35 -2
23 -4z m180 -10 c-7 -2 -19 -2 -25 0 -7 3 -2 5 12 5 14 0 19 -2 13 -5z m214
-59 c-3 -3 -12 -4 -19 -1 -8 3 -5 6 6 6 11 1 17 -2 13 -5z m85 -22 c29 -13 35
-20 28 -32 -8 -13 -10 -12 -10 3 0 9 -8 17 -17 17 -10 1 -29 7 -43 15 -34 20
-3 17 42 -3z m62 -81 c2 -3 -6 -6 -18 -6 -13 0 -23 5 -23 11 0 11 34 7 41 -5z
m56 -1 c8 -5 11 -10 5 -10 -5 0 -3 -4 5 -10 8 -5 11 -12 7 -16 -4 -4 -16 1
-27 11 -31 28 -24 47 10 25z m15 -60 c3 -5 -1 -10 -9 -10 -8 0 -18 5 -21 10
-3 6 1 10 9 10 8 0 18 -4 21 -10z m105 -66 c0 -14 -3 -14 -15 -4 -9 7 -14 19
-11 27 3 8 -1 16 -8 19 -8 3 -17 13 -20 22 -4 9 7 2 24 -16 16 -18 30 -40 30
-48z m44 -30 c3 -8 2 -12 -4 -9 -6 3 -10 10 -10 16 0 14 7 11 14 -7z m-69 -4
c3 -5 3 -15 -1 -21 -6 -11 -23 6 -24 24 0 10 18 9 25 -3z m61 -46 c-4 -9 -9
-15 -11 -12 -3 3 -3 13 1 22 4 9 9 15 11 12 3 -3 3 -13 -1 -22z m65 -93 c-1
-51 2 -77 13 -93 l16 -22 0 24 1 25 14 -25 15 -25 -6 30 c-4 17 -13 43 -21 58
-8 16 -13 33 -11 39 4 10 56 -97 67 -137 9 -32 7 -368 -2 -390 -6 -14 -6 -16
1 -6 16 22 25 -40 13 -86 -6 -21 -27 -69 -47 -106 -39 -74 -57 -88 -22 -19 22
46 21 51 -10 57 -20 3 -21 0 -20 -51 1 -37 -3 -58 -12 -64 -7 -5 -15 -19 -17
-32 -2 -13 -15 -34 -30 -48 -14 -14 -24 -18 -21 -10 3 8 2 24 -3 35 -6 17 -8
16 -14 -13 -5 -22 -15 -34 -31 -38 -13 -3 -21 -10 -18 -15 3 -6 15 -7 27 -3
18 5 16 0 -13 -32 -19 -21 -36 -41 -38 -43 -1 -3 -18 -5 -37 -4 -19 1 -35 -3
-35 -9 0 -5 5 -6 10 -3 6 3 15 3 20 0 15 -9 -9 -37 -24 -28 -6 3 -8 3 -4 -2 4
-4 2 -17 -4 -28 -9 -18 -11 -19 -20 -4 -10 18 -43 23 -52 8 -4 -5 0 -12 6 -15
7 -3 3 -3 -9 0 -17 4 -23 1 -23 -11 0 -9 -4 -13 -10 -10 -5 3 -10 28 -10 56 0
42 -3 49 -20 49 -17 0 -20 -7 -20 -40 0 -24 5 -40 12 -40 9 0 9 -3 0 -12 -7
-7 -12 -20 -12 -30 0 -10 -4 -18 -10 -18 -5 0 -10 14 -10 30 0 17 -4 30 -10
30 -5 0 -10 18 -10 40 0 33 3 40 20 40 19 0 20 7 20 146 0 151 6 174 44 174
12 0 16 11 16 44 0 25 5 48 10 51 7 4 7 13 0 24 -6 12 -5 22 2 29 9 9 9 12 0
12 -7 0 -12 8 -12 17 0 15 2 14 14 -2 14 -19 15 -19 34 -2 17 16 21 16 32 2
23 -28 40 -18 40 25 0 22 -4 40 -10 40 -5 0 -10 -6 -10 -14 0 -23 -29 -27 -40
-6 -9 16 -8 20 5 20 11 0 15 11 15 39 0 22 -4 41 -8 43 -5 2 -12 28 -15 58 -5
47 -4 52 7 38 12 -16 14 -14 24 21 7 21 12 57 12 80 l0 41 40 0 40 0 0 -40 c0
-22 5 -40 10 -40 6 0 10 18 10 40 0 22 -4 40 -10 40 -5 0 -10 18 -10 40 l0 39
-67 3 -68 3 28 26 c31 30 34 46 10 51 -15 3 -15 4 0 17 15 12 17 11 17 -3 0
-13 11 -16 56 -16 50 0 55 2 49 19 -9 30 12 35 39 8 20 -21 25 -22 34 -8 5 9
13 12 18 8 5 -4 2 -12 -5 -17 -10 -5 -6 -8 12 -7 32 2 33 8 7 32 -11 10 -20
23 -20 29 0 6 12 -1 27 -16 24 -24 26 -33 24 -97z m-654 13 c-3 -3 -12 -4 -19
-1 -8 3 -5 6 6 6 11 1 17 -2 13 -5z m40 0 c-3 -3 -12 -4 -19 -1 -8 3 -5 6 6 6
11 1 17 -2 13 -5z m131 -79 c-3 -3 -9 2 -12 12 -6 14 -5 15 5 6 7 -7 10 -15 7
-18z m64 -5 c16 -14 18 -20 7 -20 -8 0 -20 9 -27 20 -7 11 -10 20 -7 20 3 0
15 -9 27 -20z m-27 -10 c3 -6 -1 -7 -9 -4 -18 7 -21 14 -7 14 6 0 13 -4 16
-10z m75 -40 c0 -5 -2 -10 -4 -10 -3 0 -8 5 -11 10 -3 6 -1 10 4 10 6 0 11 -4
11 -10z m37 -27 c-3 -3 -11 -2 -17 2 -8 5 -7 11 2 22 12 15 13 14 16 -1 2 -10
1 -20 -1 -23z m-37 -23 c12 -23 5 -26 -16 -6 -16 17 -18 26 -4 26 5 0 14 -9
20 -20z m39 -110 c1 -13 0 -13 -9 0 -5 8 -9 26 -9 40 l1 25 8 -25 c4 -14 8
-32 9 -40z m448 -17 c-3 -10 -5 -2 -5 17 0 19 2 27 5 18 2 -10 2 -26 0 -35z
m5 -170 c-5 -59 -10 -63 -11 -10 -1 26 3 47 7 47 4 0 6 -17 4 -37z m-485 -35
c-3 -8 -6 -5 -6 6 -1 11 2 17 5 13 3 -3 4 -12 1 -19z m9 -44 c-5 -14 -9 -15
-19 -5 -9 9 -9 14 3 21 18 11 24 6 16 -16z m-56 -24 c0 -5 -5 -10 -11 -10 -5
0 -7 5 -4 10 3 6 8 10 11 10 2 0 4 -4 4 -10z m-13 -56 c-30 -16 -44 -14 -32 5
3 6 18 11 33 11 l27 -1 -28 -15z m-64 -37 c-4 -19 -8 -25 -13 -16 -5 7 -3 20
3 30 15 23 16 20 10 -14z m-44 -33 c-12 -15 -11 -16 11 -9 l25 7 -24 -21 c-13
-11 -27 -21 -30 -22 -3 0 -16 -2 -29 -5 -21 -4 -22 -2 -9 11 9 8 23 12 31 9 9
-3 16 -1 16 5 0 6 -5 11 -12 11 -6 0 -3 8 8 19 23 22 33 18 13 -5z m558 -6
c-3 -8 -6 -5 -6 6 -1 11 2 17 5 13 3 -3 4 -12 1 -19z m-513 -21 c-3 -8 -12
-18 -20 -21 -11 -4 -10 0 3 18 20 26 27 28 17 3z m-180 -106 c-16 -16 -31 -27
-34 -24 -5 4 49 53 59 53 2 0 -9 -13 -25 -29z m-4 -46 c-7 -9 -15 -13 -18 -10
-3 2 1 11 8 20 7 9 15 13 18 10 3 -2 -1 -11 -8 -20z m130 1 c0 -14 -4 -28 -10
-31 -6 -4 -10 7 -10 24 0 17 5 31 10 31 6 0 10 -11 10 -24z m-104 -16 c0 -12
-4 -16 -9 -11 -5 5 -6 14 -3 20 10 15 12 14 12 -9z m-89 -7 c-4 -3 -1 -13 6
-21 10 -13 9 -14 -12 -3 -19 10 -21 15 -10 22 17 10 25 12 16 2z m10 -59 c-3
-3 -12 -4 -19 -1 -8 3 -5 6 6 6 11 1 17 -2 13 -5z m-94 -54 c-3 -11 -9 -20
-14 -20 -12 0 -11 17 1 25 6 4 7 11 4 17 -4 6 -2 8 4 5 5 -4 8 -16 5 -27z m94
24 c-3 -3 -12 -4 -19 -1 -8 3 -5 6 6 6 11 1 17 -2 13 -5z m-137 -49 c-7 -8
-16 -15 -21 -15 -5 0 -1 9 8 20 9 11 19 17 21 15 3 -3 -1 -11 -8 -20z m590
-45 c0 -5 -2 -10 -4 -10 -3 0 -8 5 -11 10 -3 6 -1 10 4 10 6 0 11 -4 11 -10z
m-673 -28 c-13 -14 -14 -21 -5 -30 8 -8 8 -12 1 -12 -19 0 -23 29 -7 45 22 21
31 19 11 -3z m645 4 c6 4 5 -3 -2 -15 -6 -12 -19 -25 -28 -29 -9 -3 -25 -17
-36 -29 -28 -36 -29 -21 -2 27 14 24 27 37 30 31 13 -20 27 -12 22 12 -3 12
-3 16 0 9 3 -6 10 -9 16 -6z m-622 -16 c0 -5 -5 -10 -11 -10 -5 0 -7 5 -4 10
3 6 8 10 11 10 2 0 4 -4 4 -10z m34 -16 c3 -8 2 -12 -4 -9 -6 3 -10 10 -10 16
0 14 7 11 14 -7z m481 -93 c-3 -6 -11 -9 -16 -6 -5 4 -9 2 -9 -3 0 -6 -10 -5
-25 1 -24 12 -24 12 13 17 43 6 47 5 37 -9z m-640 -9 c-3 -3 -11 0 -18 7 -9
10 -8 11 6 5 10 -3 15 -9 12 -12z m532 -14 c-3 -8 -6 -5 -6 6 -1 11 2 17 5 13
3 -3 4 -12 1 -19z m-567 -3 c-7 -8 -17 -15 -22 -15 -11 0 14 29 26 30 5 0 3
-7 -4 -15z m630 1 c0 -8 -4 -17 -9 -21 -12 -7 -24 12 -16 25 9 15 25 12 25 -4z
m-64 -56 c8 0 11 -6 7 -16 -3 -8 -12 -13 -19 -10 -7 3 -16 0 -20 -6 -4 -7 -3
-8 4 -4 17 10 15 -3 -2 -20 -13 -13 -15 -9 -13 26 1 30 5 39 15 35 7 -3 20 -5
28 -5z m-91 -57 c3 -45 0 -53 -31 -87 -22 -24 -39 -34 -47 -29 -8 5 -6 9 8 11
23 5 46 32 40 49 -2 7 2 10 11 6 7 -3 14 0 14 6 0 6 -4 11 -8 11 -6 0 -8 46
-3 84 3 24 12 -7 16 -51z m-637 -48 c-6 -14 -17 -25 -25 -25 -8 0 -6 8 9 25
12 14 23 25 25 25 1 0 -3 -11 -9 -25z m552 -85 c0 -11 -80 -90 -92 -90 -15 0
21 46 47 60 13 7 22 18 18 23 -3 6 -1 7 5 3 7 -4 12 -2 12 3 0 6 2 11 5 11 3
0 5 -4 5 -10z m-666 -25 c-4 -9 -16 -21 -28 -27 -19 -10 -18 -8 4 15 29 31 31
32 24 12z m1204 -1271 c-2 -723 -6 -944 -15 -956 -7 -8 -17 -39 -24 -69 -17
-81 -97 -243 -149 -300 -8 -9 -28 -31 -44 -48 -16 -18 -45 -44 -65 -58 -20
-15 -40 -32 -46 -37 -11 -12 -67 -50 -130 -88 -22 -14 -62 -30 -90 -37 -27 -7
-60 -19 -71 -26 -40 -26 -185 -35 -514 -33 -179 1 -265 4 -192 5 76 2 132 8
132 13 0 6 18 10 40 10 22 0 40 -4 40 -10 0 -5 18 -10 40 -10 30 0 40 4 40 16
0 13 7 15 33 10 17 -3 46 -2 62 2 l30 8 -33 7 c-19 4 -45 4 -58 1 -15 -4 -29
0 -39 10 -18 17 -75 22 -75 6 0 -15 -70 -12 -86 4 -8 9 -14 34 -14 60 0 44 1
46 30 46 28 0 30 2 30 40 0 33 -3 40 -20 40 -18 0 -20 7 -20 71 0 64 2 70 18
63 9 -4 27 -7 40 -7 23 1 32 -30 12 -42 -6 -3 -9 -43 -8 -88 1 -71 2 -76 8
-37 l7 45 1 -42 c2 -39 4 -43 27 -43 25 0 25 1 25 80 0 73 -2 80 -20 80 -11 0
-20 5 -20 10 0 6 23 10 50 10 28 0 50 5 50 10 0 6 -22 10 -50 10 -41 0 -50 3
-50 18 0 14 2 15 10 2 9 -13 10 -13 10 0 0 13 1 13 10 0 9 -13 10 -13 10 0 0
13 1 13 10 0 9 -13 10 -13 10 0 0 13 1 13 10 0 9 -13 10 -13 10 0 0 12 2 12 9
2 6 -11 9 -9 13 6 3 11 16 22 29 25 13 3 -58 4 -158 4 -100 -1 -185 2 -189 6
-4 4 100 7 232 7 131 0 266 5 299 11 33 6 68 11 78 11 9 -1 17 6 17 14 0 13
14 18 47 17 7 0 11 3 10 7 -1 4 18 22 43 41 44 34 119 148 120 182 0 9 4 17 8
17 26 0 29 85 31 820 2 742 2 762 21 783 11 11 19 30 19 41 -1 20 -2 20 -6 2
-3 -11 -11 -26 -19 -34 -12 -11 -14 -8 -14 24 0 21 2 35 5 32 3 -3 20 8 37 24
29 27 33 28 39 11 7 -17 7 -17 14 0 6 15 10 16 16 5 6 -9 9 -4 9 15 0 15 -5
27 -11 27 -6 0 2 14 18 30 35 38 49 39 26 3 -16 -25 -16 -27 -1 -15 10 8 23
10 29 6 9 -5 10 -2 6 9 -3 10 -2 17 3 17 6 0 10 13 10 28 0 34 50 86 83 87 12
0 23 7 23 15 1 8 2 20 3 27 2 26 45 53 80 52 20 0 30 -3 23 -6 -15 -6 -17
-889 -2 -898 6 -4 10 19 10 57 1 208 11 807 15 831 3 15 0 27 -6 27 -8 0 -7 5
1 15 17 21 5 31 -16 14 -16 -13 -16 -12 -5 9 7 12 16 20 22 17 5 -4 9 -3 8 2
-1 4 0 13 2 18 8 23 10 -303 7 -1191z m-707 1123 c-10 -9 -11 -8 -5 6 3 10 9
15 12 12 3 -3 0 -11 -7 -18z m-67 -62 c9 -25 -9 -24 -20 0 -9 18 -9 22 2 18 7
-2 15 -11 18 -18z m26 21 c0 -3 -4 -8 -10 -11 -5 -3 -10 -1 -10 4 0 6 5 11 10
11 6 0 10 -2 10 -4z m-660 -26 c0 -5 -5 -10 -11 -10 -5 0 -7 5 -4 10 3 6 8 10
11 10 2 0 4 -4 4 -10z m607 -32 c-3 -7 -5 -2 -5 12 0 14 2 19 5 13 2 -7 2 -19
0 -25z m-53 -37 c3 -4 -4 -17 -17 -27 -17 -15 -19 -15 -8 -2 7 9 10 22 6 28
-3 5 -2 10 4 10 5 0 12 -4 15 -9z m-66 -69 c8 -6 2 -9 -18 -9 -20 0 -26 3 -18
9 7 4 15 8 18 8 3 0 11 -4 18 -8z m-34 -52 c-6 -6 -10 -3 -10 10 0 13 4 16 10
10 7 -7 7 -13 0 -20z m-54 -45 c-7 -8 -16 -15 -21 -15 -5 0 -1 9 8 20 9 11 19
17 21 15 3 -3 -1 -11 -8 -20z m-72 -80 c-3 -3 -9 2 -12 12 -6 14 -5 15 5 6 7
-7 10 -15 7 -18z m-18 -9 c0 -2 -8 -10 -17 -17 -16 -13 -17 -12 -4 4 13 16 21
21 21 13z m-70 -83 c0 -1 -8 -7 -18 -12 -13 -7 -19 -6 -19 2 0 7 9 13 19 13
10 0 18 -1 18 -3z m-710 -63 c0 -5 -5 -10 -11 -10 -5 0 -7 5 -4 10 3 6 8 10
11 10 2 0 4 -4 4 -10z m377 -265 c-15 -16 -19 -13 -11 9 3 9 10 13 15 10 5 -3
3 -11 -4 -19z m56 -1532 c-46 -2 -120 -2 -165 0 -46 1 -9 3 82 3 91 0 128 -2
83 -3z m380 -20 c-13 -2 -33 -2 -45 0 -13 2 -3 4 22 4 25 0 35 -2 23 -4z
m-490 -420 c-23 -2 -64 -2 -90 0 -26 2 -7 3 42 3 50 0 71 -1 48 -3z"/>
<path d="M5580 8440 c0 -22 5 -40 10 -40 6 0 10 18 10 40 0 22 -4 40 -10 40
-5 0 -10 -18 -10 -40z"/>
<path d="M5681 8354 c0 -11 3 -14 6 -6 3 7 2 16 -1 19 -3 4 -6 -2 -5 -13z"/>
<path d="M5353 8280 c0 -25 2 -35 4 -22 2 12 2 32 0 45 -2 12 -4 2 -4 -23z"/>
<path d="M5500 8120 c0 -22 5 -40 10 -40 6 0 10 18 10 40 0 22 -4 40 -10 40
-5 0 -10 -18 -10 -40z"/>
<path d="M5685 8000 c-4 -17 -5 -34 -2 -36 2 -3 7 10 11 27 3 18 4 34 2 36 -2
3 -7 -10 -11 -27z"/>
<path d="M5420 7960 c0 -22 5 -40 10 -40 6 0 10 18 10 40 0 22 -4 40 -10 40
-5 0 -10 -18 -10 -40z"/>
<path d="M5520 7985 c0 -8 3 -15 6 -15 3 0 12 7 20 15 14 13 13 15 -5 15 -12
0 -21 -6 -21 -15z"/>
<path d="M5288 7834 c-9 -14 -13 -202 -5 -210 3 -3 9 3 14 13 10 21 1 213 -9
197z"/>
<path d="M5520 7830 c0 -5 5 -10 10 -10 6 0 10 5 10 10 0 6 -4 10 -10 10 -5 0
-10 -4 -10 -10z"/>
<path d="M5444 7749 c-7 -12 15 -31 28 -23 9 6 -1 34 -12 34 -5 0 -12 -5 -16
-11z"/>
<path d="M5530 7750 c0 -5 4 -10 9 -10 6 0 13 5 16 10 3 6 -1 10 -9 10 -9 0
-16 -4 -16 -10z"/>
<path d="M5360 7682 c0 -19 34 -45 63 -47 9 -1 17 4 17 12 0 7 5 13 10 13 6 0
5 8 -2 20 -17 27 -88 29 -88 2z"/>
<path d="M5291 7597 c-17 -17 -13 -35 9 -42 39 -12 55 21 21 42 -14 9 -21 9
-30 0z"/>
<path d="M5320 6833 c0 -5 5 -15 10 -23 8 -12 10 -11 10 8 0 12 -4 22 -10 22
-5 0 -10 -3 -10 -7z"/>
<path d="M5235 6760 c-16 -17 -24 -30 -19 -30 13 0 59 48 52 55 -2 3 -17 -9
-33 -25z"/>
<path d="M5055 6570 c-3 -5 -1 -10 4 -10 6 0 11 5 11 10 0 6 -2 10 -4 10 -3 0
-8 -4 -11 -10z"/>
<path d="M5011 6323 c1 -72 2 -74 10 -33 11 64 11 110 -1 110 -6 0 -9 -32 -9
-77z"/>
<path d="M5013 6155 c0 -44 2 -61 4 -37 2 23 2 59 0 80 -2 20 -4 1 -4 -43z"/>
<path d="M5405 5918 c-2 -7 -1 -137 4 -288 l8 -275 1 288 c1 158 0 287 -3 287
-3 0 -8 -6 -10 -12z"/>
<path d="M5400 4865 c0 -8 5 -15 10 -15 6 0 10 7 10 15 0 8 -4 15 -10 15 -5 0
-10 -7 -10 -15z"/>
<path d="M4935 4799 c-4 -5 -4 -13 -1 -16 3 -4 6 0 6 8 0 11 2 11 10 -1 6 -9
10 -10 10 -3 0 17 -17 25 -25 12z"/>
<path d="M4915 4750 c-3 -5 -1 -10 4 -10 6 0 11 5 11 10 0 6 -2 10 -4 10 -3 0
-8 -4 -11 -10z"/>
<path d="M4882 4718 c-19 -19 -14 -30 8 -18 11 6 20 15 20 20 0 14 -14 12 -28
-2z"/>
<path d="M4810 4656 c0 -2 7 -7 16 -10 8 -3 12 -2 9 4 -6 10 -25 14 -25 6z"/>
<path d="M4747 4605 c-21 -29 -17 -31 24 -10 16 9 27 20 24 25 -10 17 -29 10
-48 -15z"/>
<path d="M4690 4590 c-13 -8 -12 -10 3 -10 9 0 17 5 17 10 0 12 -1 12 -20 0z"/>
<path d="M5312 4580 c0 -14 2 -19 5 -12 2 6 2 18 0 25 -3 6 -5 1 -5 -13z"/>
<path d="M4628 4573 c7 -3 16 -2 19 1 4 3 -2 6 -13 5 -11 0 -14 -3 -6 -6z"/>
<path d="M4260 4489 c0 -5 5 -7 10 -4 6 3 10 8 10 11 0 2 -4 4 -10 4 -5 0 -10
-5 -10 -11z"/>
<path d="M5110 4386 c0 -8 4 -18 10 -21 6 -3 7 1 4 10 -5 11 -2 14 12 8 12 -4
15 -3 10 5 -10 17 -36 15 -36 -2z"/>
<path d="M4988 4303 c7 -3 16 -2 19 1 4 3 -2 6 -13 5 -11 0 -14 -3 -6 -6z"/>
<path d="M5016 4290 c-11 -3 -15 -9 -10 -13 10 -6 42 9 34 16 -3 3 -14 1 -24
-3z"/>
<path d="M4258 4233 c12 -2 32 -2 45 0 12 2 2 4 -23 4 -25 0 -35 -2 -22 -4z"/>
<path d="M4895 4230 c3 -5 11 -10 16 -10 6 0 7 5 4 10 -3 6 -11 10 -16 10 -6
0 -7 -4 -4 -10z"/>
<path d="M4587 4188 c-14 -9 7 -27 33 -29 40 -3 95 4 98 12 2 5 22 9 45 9 23
0 49 5 57 10 10 6 -25 9 -103 7 -66 -1 -124 -5 -130 -9z"/>
<path d="M4498 4153 c12 -2 32 -2 45 0 12 2 2 4 -23 4 -25 0 -35 -2 -22 -4z"/>
<path d="M11740 7660 c0 -177 -3 -230 -12 -231 -7 -1 -67 -1 -133 1 -131 2
-182 -10 -207 -49 -14 -22 -54 -29 -60 -10 -3 9 -10 9 -27 -1 -15 -7 -21 -8
-17 -1 5 7 -3 11 -19 11 -14 0 -24 4 -21 9 4 5 0 11 -6 14 -7 2 -10 7 -7 11 4
4 13 1 20 -7 18 -17 45 -27 53 -20 9 9 -51 43 -74 43 -11 0 -20 -6 -20 -14 0
-8 -7 -12 -17 -10 -10 2 -31 0 -48 -5 -27 -8 -24 -9 26 -10 41 -1 56 -5 56
-15 0 -11 -4 -12 -17 -4 -11 7 -42 8 -96 1 -58 -8 -68 -11 -36 -12 l42 -1 0
-40 0 -40 -40 0 c-40 0 -40 0 -40 -40 l0 -39 -82 -4 -83 -3 83 -2 c140 -3 93
-21 -65 -25 l-148 -3 190 -4 190 -4 -205 -6 -205 -6 212 -2 211 -2 22 -35 c12
-20 20 -46 18 -62 l-3 -28 -250 -5 -250 -5 225 -5 225 -5 -294 -3 c-162 -1
-292 -5 -289 -8 3 -3 136 -6 294 -7 l289 -1 -245 -6 c-135 -3 -234 -7 -220 -9
14 -2 33 -4 43 -4 13 0 17 -8 17 -38 0 -39 0 -39 -40 -39 l-40 0 0 -40 0 -40
-41 0 -40 0 3 -37 c2 -31 7 -38 23 -36 65 9 108 -21 68 -47 -17 -11 -17 -11 0
-6 9 3 17 1 17 -4 0 -5 -10 -10 -22 -12 -13 -2 -22 -9 -20 -17 2 -8 -3 -18
-10 -22 -17 -11 -29 -576 -14 -629 18 -58 29 -60 352 -60 l291 0 27 26 c14 15
30 41 34 57 11 41 28 45 36 7 3 -17 19 -45 35 -61 l29 -29 315 0 314 0 27 25
26 24 0 491 0 491 -26 24 -27 25 -269 0 c-301 0 -290 -3 -267 72 l14 43 285 5
285 5 0 155 c0 85 -2 255 -3 378 l-3 222 -170 0 -169 0 0 -230z m17 198 c-3
-8 -6 -5 -6 6 -1 11 2 17 5 13 3 -3 4 -12 1 -19z m-342 -487 c-3 -6 -11 -11
-16 -11 -5 0 -4 6 3 14 14 16 24 13 13 -3z m92 13 c-3 -3 -12 -4 -19 -1 -8 3
-5 6 6 6 11 1 17 -2 13 -5z m-329 -21 c-10 -2 -28 -2 -40 0 -13 2 -5 4 17 4
22 1 32 -1 23 -4z m-38 -183 c0 -5 -4 -10 -10 -10 -5 0 -10 5 -10 10 0 6 5 10
10 10 6 0 10 -4 10 -10z m53 -207 c-7 -2 -19 -2 -25 0 -7 3 -2 5 12 5 14 0 19
-2 13 -5z m-503 -283 c0 -5 -5 -10 -11 -10 -5 0 -7 5 -4 10 3 6 8 10 11 10 2
0 4 -4 4 -10z m1042 -7 c16 -14 18 -35 18 -199 0 -208 -5 -230 -57 -240 -57
-11 -150 0 -173 21 -18 16 -20 30 -20 154 0 75 -4 141 -8 146 -7 11 -263 19
-293 10 -15 -5 -18 -24 -21 -146 -3 -140 -3 -141 -31 -165 -24 -21 -38 -24
-101 -24 -109 0 -106 -6 -109 203 -2 134 1 181 10 189 7 6 13 16 13 24 0 7 10
20 22 28 19 14 72 16 377 16 316 0 356 -2 373 -17z m-1012 -7 c0 -2 -7 -9 -15
-16 -13 -11 -14 -10 -9 4 5 14 24 23 24 12z"/>
<path d="M5920 7306 l0 -125 509 -3 c500 -3 510 -3 538 -24 l28 -21 2 -464 c2
-281 -1 -470 -7 -479 -8 -13 -54 -15 -297 -18 -306 -3 -364 0 -388 24 -22 23
-21 157 2 175 12 11 68 15 235 17 l218 4 0 257 c0 221 -2 260 -16 280 -34 49
-56 51 -454 51 l-370 0 0 -125 0 -125 218 -1 c119 -1 228 -4 242 -8 20 -5 26
-14 28 -43 l3 -36 -193 -4 c-179 -3 -196 -5 -229 -25 -68 -43 -70 -54 -67
-363 l3 -274 34 -23 35 -24 658 3 658 3 27 28 28 27 3 668 2 667 -26 29 c-15
16 -48 38 -73 50 -45 21 -57 21 -698 24 l-653 3 0 -125z m1390 -1346 c0 -5 -5
-10 -11 -10 -5 0 -7 5 -4 10 3 6 8 10 11 10 2 0 4 -4 4 -10z"/>
<path d="M8318 7424 c-5 -4 -8 -65 -8 -136 l0 -128 283 0 c293 0 529 9 523 19
-2 3 16 4 40 2 l44 -3 0 37 c0 53 17 65 94 65 l66 0 0 39 c0 40 0 40 -42 44
-24 2 18 5 92 7 l135 4 -95 6 c-67 4 -82 7 -50 10 35 3 26 5 -40 10 l-85 6
123 2 c76 1 122 -2 122 -8 0 -13 50 -13 70 0 11 7 6 8 -17 4 -18 -4 -39 -2
-45 4 -15 12 -1199 28 -1210 16z m930 -61 c-10 -2 -26 -2 -35 0 -10 3 -2 5 17
5 19 0 27 -2 18 -5z m-185 -180 c-18 -2 -48 -2 -65 0 -18 2 -4 4 32 4 36 0 50
-2 33 -4z"/>
<path d="M10938 7413 c34 -2 90 -2 125 0 34 2 6 3 -63 3 -69 0 -97 -1 -62 -3z"/>
<path d="M9610 7396 c0 -2 7 -7 16 -10 8 -3 12 -2 9 4 -6 10 -25 14 -25 6z"/>
<path d="M7546 7364 c-8 -21 -8 -213 0 -253 l7 -31 118 0 c91 0 119 -3 119
-13 0 -7 -38 -89 -83 -183 -46 -93 -99 -200 -118 -239 l-34 -70 0 -301 c0
-240 3 -304 14 -317 12 -15 42 -17 265 -15 216 2 232 3 116 8 l-135 6 135 3
c74 2 138 3 141 3 3 -1 6 6 6 14 0 10 -14 14 -51 16 -48 1 -49 2 -10 5 l41 4
9 77 10 77 11 -85 11 -85 -2 124 -1 124 -100 3 c-131 5 -135 9 -135 145 0 138
11 179 105 373 164 341 147 293 153 442 2 72 2 143 -2 158 l-6 26 -289 0
c-254 0 -290 -2 -295 -16z m477 -1391 c-34 -2 -93 -2 -130 0 -37 2 -9 3 62 3
72 0 102 -1 68 -3z"/>
<path d="M9618 7363 c7 -3 16 -2 19 1 4 3 -2 6 -13 5 -11 0 -14 -3 -6 -6z"/>
<path d="M10923 7363 c20 -2 54 -2 75 0 20 2 3 4 -38 4 -41 0 -58 -2 -37 -4z"/>
<path d="M9704 7195 c0 -66 1 -92 3 -57 2 34 2 88 0 120 -2 31 -3 3 -3 -63z"/>
<path d="M9222 7190 c9 -6 31 -9 50 -8 18 1 42 -2 53 -7 15 -6 17 -5 9 4 -6 7
-38 14 -70 17 -43 3 -54 1 -42 -6z"/>
<path d="M9165 7169 c-29 -5 -17 -7 45 -8 52 -1 95 -7 110 -16 14 -8 30 -14
35 -14 6 0 -3 7 -20 16 -36 20 -115 30 -170 22z"/>
<path d="M8310 6950 l0 -120 219 0 c121 0 231 -4 245 -10 20 -7 24 -6 20 4 -3
8 0 17 6 21 8 5 8 11 -1 21 -7 9 -8 14 -3 13 5 -1 44 -1 87 0 l77 1 0 79 c0
75 1 80 23 84 12 2 -25 6 -83 8 l-105 3 110 6 c68 4 -23 7 -242 8 l-353 2 0
-120z m457 -76 c-3 -3 -12 -4 -19 -1 -8 3 -5 6 6 6 11 1 17 -2 13 -5z m-33
-19 c5 -13 -13 -15 -127 -13 l-132 2 125 5 125 6 -160 5 -160 6 161 2 c136 2
163 0 168 -13z m51 -5 c-3 -5 -13 -10 -21 -10 -8 0 -12 5 -9 10 3 6 13 10 21
10 8 0 12 -4 9 -10z"/>
<path d="M9028 7053 c6 -2 18 -2 25 0 6 3 1 5 -13 5 -14 0 -19 -2 -12 -5z"/>
<path d="M9040 7029 c0 -5 5 -7 10 -4 6 3 10 8 10 11 0 2 -4 4 -10 4 -5 0 -10
-5 -10 -11z"/>
<path d="M9121 7005 c1 -19 18 -51 18 -35 0 8 -4 22 -9 30 -5 8 -9 11 -9 5z"/>
<path d="M10563 7003 c15 -2 39 -2 55 0 15 2 2 4 -28 4 -30 0 -43 -2 -27 -4z"/>
<path d="M10543 6800 c0 -41 2 -58 4 -37 2 20 2 54 0 75 -2 20 -4 3 -4 -38z"/>
<path d="M8231 6635 l1 -115 47 -1 c25 -1 60 0 77 1 23 1 33 -4 36 -18 4 -15
1 -18 -12 -15 -10 3 -28 -6 -44 -22 -25 -25 -26 -29 -24 -133 2 -106 2 -106 5
-22 3 60 9 90 20 102 17 19 43 24 43 8 0 -5 -7 -10 -17 -10 -9 0 -14 -3 -10
-6 3 -3 15 -3 26 1 17 5 20 12 14 33 -6 24 -5 26 11 13 9 -8 19 -11 23 -7 3 3
0 6 -7 6 -9 0 -7 5 6 15 11 9 42 14 77 15 l57 0 0 40 c0 40 0 40 40 40 l39 0
3 78 3 77 40 3 c22 2 43 9 47 15 5 9 10 9 20 -1 6 -6 18 -12 26 -12 11 0 12 3
2 14 -9 12 -59 15 -281 16 l-270 0 2 -115z m442 98 c-29 -2 -78 -2 -110 0 -32
2 -8 3 52 3 61 0 87 -1 58 -3z m-282 -187 c-14 -16 -69 -27 -77 -14 -3 4 5 8
18 8 13 0 30 5 38 10 22 14 34 12 21 -4z m-11 -75 c0 -6 -4 -13 -10 -16 -5 -3
-10 1 -10 9 0 9 5 16 10 16 6 0 10 -4 10 -9z m-40 -35 c0 -3 -4 -8 -10 -11 -5
-3 -10 -1 -10 4 0 6 5 11 10 11 6 0 10 -2 10 -4z"/>
<path d="M10402 6588 c-2 -26 -5 -28 -42 -28 l-40 0 0 -40 0 -40 -40 0 -40 0
0 -40 0 -40 -40 0 -40 0 0 -40 c0 -39 -1 -40 -35 -40 -29 0 -35 -4 -35 -21 0
-20 -27 -63 -42 -67 -5 -1 -17 -2 -28 -2 -16 0 -20 -7 -20 -35 0 -34 -1 -35
-39 -35 -40 0 -40 0 -44 43 -2 23 -5 -25 -7 -108 l-4 -150 -6 150 -6 150 -2
-151 -2 -151 83 -6 c159 -13 356 -8 392 8 50 25 55 46 54 248 -2 174 -14 452
-17 395z"/>
<path d="M9698 6278 c0 -156 -4 -265 -8 -243 l-8 40 3 -46 c2 -42 0 -46 -19
-42 -20 3 -20 3 -1 -6 41 -19 45 5 45 301 0 153 -2 278 -5 278 -3 0 -6 -127
-7 -282z"/>
<path d="M8750 6540 c8 -5 22 -10 30 -10 13 0 13 1 0 10 -8 5 -22 10 -30 10
-13 0 -13 -1 0 -10z"/>
<path d="M8730 6505 c-11 -13 -10 -14 4 -9 9 3 16 10 16 15 0 13 -6 11 -20 -6z"/>
<path d="M8670 6465 c0 -8 2 -15 4 -15 2 0 6 7 10 15 3 8 1 15 -4 15 -6 0 -10
-7 -10 -15z"/>
<path d="M8455 6460 c-4 -6 -3 -16 3 -22 13 -13 23 4 13 21 -7 10 -10 10 -16
1z"/>
<path d="M8664 6335 c0 -55 1 -76 3 -47 2 29 2 74 0 100 -2 26 -3 2 -3 -53z"/>
<path d="M9608 5983 c7 -3 16 -2 19 1 4 3 -2 6 -13 5 -11 0 -14 -3 -6 -6z"/>
<path d="M8110 5955 c0 -8 2 -15 4 -15 2 0 6 7 10 15 3 8 1 15 -4 15 -6 0 -10
-7 -10 -15z"/>
<path d="M9603 5955 c-3 -9 -3 -19 1 -22 3 -4 6 1 6 10 0 8 8 18 18 20 16 4
16 5 -1 6 -10 0 -20 -6 -24 -14z"/>
<path d="M9077 5949 c7 -7 15 -10 18 -7 3 3 -2 9 -12 12 -14 6 -15 5 -6 -5z"/>
</g>
</svg>
